<?xml version="1.0" encoding="UTF-8"?>
<svg id="Layer_1" xmlns="http://www.w3.org/2000/svg" version="1.1" viewBox="0 0 1043.55 232.96">
  <!-- Generator: Adobe Illustrator 30.1.0, SVG Export Plug-In . SVG Version: 2.1.1 Build 89)  -->
  <defs>
    <style>
      .st0 {
        fill: #f49020;
      }

      .st1 {
        fill: #fff;
      }
    </style>
  </defs>
  <g>
    <g>
      <g>
        <path class="st1" d="M335.4,26.72l-54.61,139.01h29.59l11.01-29.19h53.34l10.92,29.19h30.58l-54.22-139.01h-26.61ZM330.37,112.71l8.01-21.25c1.06-3.04,2.18-6.16,3.38-9.33,1.19-3.18,2.31-6.45,3.38-9.83,1.05-3.35,2.07-6.63,3.05-9.85.98,3.12,2.01,6.36,3.1,9.75,1.19,3.71,2.35,7.22,3.48,10.53,1.12,3.31,2.09,6.03,2.88,8.14l8.17,21.84h-35.44Z"/>
        <polygon class="st1" points="457.53 26.72 427.74 26.72 427.74 165.73 520.48 165.73 520.48 138.92 457.53 138.92 457.53 26.72"/>
        <polygon class="st1" points="553.84 26.72 540.14 26.72 540.14 165.73 569.93 165.73 569.93 110.52 625.73 110.52 625.73 84.91 569.93 84.91 569.93 53.53 634.07 53.53 634.07 26.72 569.93 26.72 553.84 26.72"/>
        <path class="st1" d="M738.93,109.93c7.02-3.97,12.54-9.36,16.58-16.19,4.04-6.82,6.06-14.4,6.06-22.74s-2.02-16.02-6.06-22.64c-4.04-6.62-9.57-11.88-16.58-15.79-7.02-3.9-14.83-5.86-23.43-5.86h-61.56v139.01h28.8v-49.85h21.97l28.08,49.85,34.55.2-31.5-54.41c1.05-.49,2.09-1.01,3.1-1.59ZM682.73,52.54h27.6c4.37,0,8.21.83,11.52,2.48,3.31,1.66,5.82,3.94,7.55,6.85,1.72,2.91,2.58,6.35,2.58,10.33,0,3.71-.73,7.05-2.18,10.03-1.46,2.98-3.54,5.3-6.26,6.95-2.72,1.66-5.86,2.48-9.43,2.48h-31.38v-39.12Z"/>
        <polygon class="st1" points="814.19 139.52 814.19 107.55 869.4 107.55 869.4 82.13 814.19 82.13 814.19 52.93 878.93 52.93 878.93 26.72 785 26.72 785 165.73 880.32 165.73 880.32 139.52 814.19 139.52"/>
      </g>
      <g>
        <path class="st0" d="M1023.72,145.88h19.83V46.72h-19.83v-19.83h-98.02v10.14h8.77v15.47h-8.77v10.14h8.77v15.47h-8.77v10.14h8.77v15.47h-8.77v10.14h8.77v15.47h-8.77v10.14h8.77v16.15h-8.77v10.14h98.02v-19.83ZM1013.8,56.63v79.33h-49.58V56.63h49.58Z"/>
        <rect class="st0" x="912.6" y="28.03" width="7.85" height="7.85"/>
        <rect class="st0" x="901.39" y="29.16" width="5.58" height="5.58"/>
        <rect class="st0" x="891.32" y="30.22" width="3.47" height="3.47"/>
        <rect class="st0" x="912.6" y="53.63" width="7.85" height="7.85"/>
        <rect class="st0" x="901.39" y="54.77" width="5.58" height="5.58"/>
        <rect class="st0" x="891.32" y="55.82" width="3.47" height="3.47"/>
        <rect class="st0" x="912.6" y="79.23" width="7.85" height="7.85"/>
        <rect class="st0" x="901.39" y="80.37" width="5.58" height="5.58"/>
        <rect class="st0" x="891.32" y="81.42" width="3.47" height="3.47"/>
        <rect class="st0" x="912.6" y="104.84" width="7.85" height="7.85"/>
        <rect class="st0" x="901.39" y="105.97" width="5.58" height="5.58"/>
        <rect class="st0" x="891.32" y="107.03" width="3.47" height="3.47"/>
        <rect class="st0" x="912.6" y="130.44" width="7.85" height="7.85"/>
        <rect class="st0" x="901.39" y="131.58" width="5.58" height="5.58"/>
        <rect class="st0" x="891.32" y="132.63" width="3.47" height="3.47"/>
        <rect class="st0" x="912.6" y="156.72" width="7.85" height="7.85"/>
        <rect class="st0" x="901.39" y="157.86" width="5.58" height="5.58"/>
        <rect class="st0" x="891.32" y="158.91" width="3.47" height="3.47"/>
      </g>
    </g>
    <g>
      <g>
        <path class="st0" d="M56.32,148.14v10.14h10.14v-8.77h15.47v8.77h10.14v-8.77h15.47v8.77h10.14v-8.77h15.47v8.77h10.14v-8.77h15.47v8.77h10.14v-8.77h16.15v8.77h10.14v-10.14H56.32Z"/>
        <rect class="st0" x="57.46" y="163.52" width="7.85" height="7.85"/>
        <rect class="st0" x="58.6" y="177" width="5.58" height="5.58"/>
        <rect class="st0" x="59.65" y="189.18" width="3.47" height="3.47"/>
        <rect class="st0" x="83.06" y="163.52" width="7.85" height="7.85"/>
        <rect class="st0" x="84.2" y="177" width="5.58" height="5.58"/>
        <rect class="st0" x="85.26" y="189.18" width="3.47" height="3.47"/>
        <rect class="st0" x="108.67" y="163.52" width="7.85" height="7.85"/>
        <rect class="st0" x="109.8" y="177" width="5.58" height="5.58"/>
        <rect class="st0" x="110.86" y="189.18" width="3.47" height="3.47"/>
        <rect class="st0" x="134.27" y="163.52" width="7.85" height="7.85"/>
        <rect class="st0" x="135.41" y="177" width="5.58" height="5.58"/>
        <rect class="st0" x="136.46" y="189.18" width="3.47" height="3.47"/>
        <rect class="st0" x="159.87" y="163.52" width="7.85" height="7.85"/>
        <rect class="st0" x="161.01" y="177" width="5.58" height="5.58"/>
        <rect class="st0" x="162.07" y="189.18" width="3.47" height="3.47"/>
        <rect class="st0" x="186.16" y="163.52" width="7.85" height="7.85"/>
        <rect class="st0" x="187.29" y="177" width="5.58" height="5.58"/>
        <rect class="st0" x="188.35" y="189.18" width="3.47" height="3.47"/>
      </g>
      <g>
        <g>
          <path class="st0" d="M79.73,125.26h90.69c1.75,0,3.17-1.42,3.17-3.17s-1.42-3.17-3.17-3.17h-90.69c-1.75,0-3.17,1.42-3.17,3.17s1.42,3.17,3.17,3.17Z"/>
          <path class="st0" d="M240.03,58.84l-21.43-8.6c-.23-.09-.47-.18-.71-.26l-4.37-1.98c-1.27-16.66-14.09-29.78-29.66-29.78h-3.37l-4.24-2.96C161.42,5.28,143.98,0,125.82,0s-34.4,4.93-48.89,14.25l-5.04,3.97h-4.12c-15.54,0-28.34,13.09-29.65,29.71l-4.56,2.06c-.23.08-.46.16-.69.25l-21.43,8.6C4.12,61.77-.56,69.73.05,78.18l1.59,21.76c.51,7.04,4.54,13.15,10.5,15.95l20.35,9.56,7.4,5.98c4.23,12.33,15.13,21.12,27.88,21.12h116.1c12.81,0,23.75-8.89,27.94-21.31l7.16-5.79,20.35-9.56c5.96-2.8,9.99-8.91,10.5-15.95l1.59-21.76c.62-8.45-4.07-16.41-11.39-19.34ZM23.24,114.85l-8.69-4.08c-4.11-1.93-6.89-6.24-7.26-11.24l-1.59-21.76c-.44-6.02,2.79-11.65,7.85-13.68l9.69-3.89v54.64ZM35.52,120.62l-6.62-5.35v-56.96l6.78-3.07c.76-.25,1.54-.41,2.33-.48v65.28c0,.59.02,1.18.04,1.76l-2.53-1.19ZM125.82,5.66c15.93,0,31.26,4.32,44.55,12.53l-12.78,14.43c-1.04,1.18-2.47,1.85-3.92,1.85h-54.3c-1.52,0-2.99-.73-4.05-2l-12.6-15.15c12.95-7.64,27.79-11.66,43.1-11.66ZM207.96,120.05c0,14.8-10.81,26.85-24.1,26.85h-116.1c-13.29,0-24.1-12.04-24.1-26.85V50.73c0-14.8,10.81-26.85,24.1-26.85h9.75l13.44,12.22c2.13,2.57,5.2,4.04,8.4,4.04h54.3c3.07,0,6.04-1.37,8.16-3.76l14.12-12.5h7.93c13.29,0,24.1,12.04,24.1,26.85v69.32ZM222.57,115.27l-6.62,5.35-2.35,1.11c.03-.56.04-1.12.04-1.68V54.78c.73.08,1.45.23,2.16.46l6.78,3.07v56.96ZM245.76,77.77l-1.59,21.76c-.36,5-3.15,9.3-7.26,11.24l-8.69,4.08v-54.64l9.69,3.89c5.06,2.03,8.29,7.65,7.85,13.68Z"/>
        </g>
        <g>
          <path class="st0" d="M89.75,55.36c-12.64,0-22.88,10.24-22.88,22.88s10.25,22.88,22.88,22.88,22.88-10.25,22.88-22.88-10.25-22.88-22.88-22.88ZM89.66,93.83c-8.48,0-15.35-6.87-15.35-15.35s6.87-15.35,15.35-15.35,15.35,6.87,15.35,15.35-6.87,15.35-15.35,15.35Z"/>
          <path class="st0" d="M161.89,55.36c-12.64,0-22.88,10.24-22.88,22.88s10.25,22.88,22.88,22.88,22.88-10.25,22.88-22.88-10.25-22.88-22.88-22.88ZM161.81,93.83c-8.48,0-15.35-6.87-15.35-15.35s6.87-15.35,15.35-15.35,15.35,6.87,15.35,15.35-6.87,15.35-15.35,15.35Z"/>
        </g>
      </g>
    </g>
  </g>
  <g>
    <path class="st1" d="M642.73,232.56v-28.02h11.69c1.79,0,3.3.27,4.52.8,1.23.53,2.15,1.33,2.78,2.38.63,1.05.94,2.34.94,3.86s-.42,2.82-1.26,3.88c-.84,1.07-2.01,1.8-3.5,2.2v-.8c1.25.27,2.35.74,3.28,1.42.93.68,1.66,1.53,2.18,2.54.52,1.01.78,2.17.78,3.48s-.21,2.52-.62,3.54c-.41,1.03-1.03,1.89-1.84,2.58-.81.69-1.79,1.22-2.94,1.58-1.15.36-2.46.54-3.92.54h-12.09ZM647.05,216.15h7.12c.8,0,1.51-.16,2.14-.48.63-.32,1.12-.76,1.48-1.32.36-.56.54-1.2.54-1.92,0-1.2-.4-2.12-1.2-2.76-.8-.64-1.95-.96-3.44-.96h-6.64v7.45ZM647.05,228.4h7.53c1.09,0,2.02-.16,2.78-.48s1.35-.79,1.76-1.42c.41-.63.62-1.38.62-2.26,0-.83-.22-1.53-.66-2.12-.44-.59-1.06-1.03-1.86-1.34-.8-.31-1.75-.46-2.84-.46h-7.32v8.09Z"/>
    <path class="st1" d="M668.95,232.56v-4h4.52v-20.01h-4.52v-4h13.37v4h-4.52v20.01h4.52v4h-13.37Z"/>
    <path class="st1" d="M694.44,232.56v-23.86h-7.84v-4.16h20.25v4.16h-8.09v23.86h-4.32Z"/>
    <path class="st1" d="M722.34,232.96c-1.95,0-3.74-.35-5.36-1.04-1.63-.69-3.04-1.69-4.24-2.98-1.2-1.29-2.13-2.82-2.78-4.58-.65-1.76-.98-3.69-.98-5.8s.35-3.86,1.06-5.58c.71-1.72,1.69-3.24,2.94-4.54,1.25-1.31,2.71-2.32,4.36-3.04,1.65-.72,3.44-1.08,5.36-1.08,1.36,0,2.69.21,3.98.62s2.47.99,3.52,1.72c1.05.73,1.91,1.57,2.58,2.5l-2.88,3c-.77-.77-1.55-1.42-2.34-1.94-.79-.52-1.59-.91-2.4-1.18-.81-.27-1.64-.4-2.46-.4-1.31,0-2.53.25-3.66.74-1.13.49-2.12,1.18-2.96,2.06-.84.88-1.5,1.93-1.98,3.14s-.72,2.54-.72,3.98c0,1.52.23,2.9.7,4.14.47,1.24,1.13,2.3,1.98,3.18.85.88,1.87,1.55,3.06,2.02,1.19.47,2.5.7,3.94.7.88,0,1.75-.12,2.6-.36.85-.24,1.65-.59,2.4-1.04.75-.45,1.43-.99,2.04-1.6l2.16,3.52c-.61.72-1.45,1.37-2.5,1.96s-2.23,1.05-3.52,1.38c-1.29.33-2.6.5-3.9.5Z"/>
    <path class="st1" d="M749.88,232.96c-1.98,0-3.8-.36-5.46-1.08-1.67-.72-3.12-1.73-4.36-3.02-1.24-1.3-2.2-2.82-2.88-4.56-.68-1.75-1.02-3.66-1.02-5.74s.34-4,1.02-5.74c.68-1.75,1.64-3.27,2.88-4.56,1.24-1.29,2.69-2.3,4.36-3.02s3.49-1.08,5.46-1.08,3.8.36,5.46,1.08,3.12,1.73,4.36,3.04,2.2,2.84,2.88,4.58c.68,1.75,1.02,3.65,1.02,5.7s-.34,3.96-1.02,5.7c-.68,1.75-1.64,3.28-2.88,4.58-1.24,1.31-2.7,2.32-4.36,3.04-1.67.72-3.49,1.08-5.46,1.08ZM749.88,228.76c1.36,0,2.61-.25,3.74-.76s2.11-1.22,2.94-2.14,1.47-2,1.94-3.24c.47-1.24.7-2.6.7-4.06s-.23-2.82-.7-4.06c-.47-1.24-1.11-2.32-1.94-3.24s-1.81-1.63-2.94-2.14c-1.13-.51-2.38-.76-3.74-.76s-2.61.25-3.74.76c-1.13.51-2.12,1.21-2.96,2.12s-1.49,1.98-1.94,3.22c-.45,1.24-.68,2.61-.68,4.1s.23,2.83.68,4.08c.45,1.25,1.1,2.34,1.94,3.24.84.91,1.83,1.62,2.96,2.12,1.13.51,2.38.76,3.74.76Z"/>
    <path class="st1" d="M767.81,232.56v-4h4.52v-20.01h-4.52v-4h13.37v4h-4.52v20.01h4.52v4h-13.37Z"/>
    <path class="st1" d="M787.98,232.56v-28.02h3.88l17.13,22.94-.64.36c-.11-.67-.2-1.39-.28-2.18-.08-.79-.15-1.63-.22-2.52s-.12-1.84-.16-2.84c-.04-1-.07-2.05-.1-3.14-.03-1.09-.04-2.23-.04-3.4v-9.21h4.32v28.02h-3.96l-16.85-22.09.44-.56c.13,1.63.25,3.01.34,4.14.09,1.13.17,2.09.24,2.88.07.79.11,1.43.14,1.92.03.49.05.9.06,1.22.01.32.02.6.02.84v11.65h-4.32Z"/>
    <path class="st1" d="M836.26,232.56v-23.86h-7.84v-4.16h20.25v4.16h-8.09v23.86h-4.32Z"/>
    <path class="st1" d="M864.51,232.96c-1.98,0-3.8-.36-5.46-1.08-1.67-.72-3.12-1.73-4.36-3.02-1.24-1.3-2.2-2.82-2.88-4.56-.68-1.75-1.02-3.66-1.02-5.74s.34-4,1.02-5.74c.68-1.75,1.64-3.27,2.88-4.56,1.24-1.29,2.69-2.3,4.36-3.02s3.49-1.08,5.46-1.08,3.8.36,5.46,1.08,3.12,1.73,4.36,3.04,2.2,2.84,2.88,4.58c.68,1.75,1.02,3.65,1.02,5.7s-.34,3.96-1.02,5.7c-.68,1.75-1.64,3.28-2.88,4.58-1.24,1.31-2.7,2.32-4.36,3.04-1.67.72-3.49,1.08-5.46,1.08ZM864.51,228.76c1.36,0,2.61-.25,3.74-.76s2.11-1.22,2.94-2.14c.83-.92,1.47-2,1.94-3.24.47-1.24.7-2.6.7-4.06s-.23-2.82-.7-4.06c-.47-1.24-1.11-2.32-1.94-3.24-.83-.92-1.81-1.63-2.94-2.14-1.13-.51-2.38-.76-3.74-.76s-2.61.25-3.74.76c-1.13.51-2.12,1.21-2.96,2.12s-1.49,1.98-1.94,3.22c-.45,1.24-.68,2.61-.68,4.1s.23,2.83.68,4.08c.45,1.25,1.1,2.34,1.94,3.24.84.91,1.83,1.62,2.96,2.12,1.13.51,2.38.76,3.74.76Z"/>
    <path class="st1" d="M895.29,232.56v-28.02h11.41c1.52,0,2.9.38,4.14,1.14s2.23,1.79,2.98,3.1c.75,1.31,1.12,2.76,1.12,4.36s-.37,3.05-1.12,4.36c-.75,1.31-1.74,2.36-2.98,3.14s-2.62,1.18-4.14,1.18h-7.08v10.73h-4.32ZM899.62,217.68h7c.72,0,1.37-.21,1.96-.62.59-.41,1.06-.96,1.42-1.64.36-.68.54-1.43.54-2.26s-.18-1.57-.54-2.24c-.36-.67-.83-1.2-1.42-1.6-.59-.4-1.24-.6-1.96-.6h-7v8.97Z"/>
    <path class="st1" d="M920.67,232.56v-28.02h17.65v4.16h-13.33v19.69h13.33v4.16h-17.65ZM922.63,220.28v-4.16h13.49v4.16h-13.49Z"/>
    <path class="st1" d="M956.97,232.96c-1.98,0-3.8-.36-5.46-1.08s-3.12-1.73-4.36-3.02c-1.24-1.3-2.2-2.82-2.88-4.56-.68-1.75-1.02-3.66-1.02-5.74s.34-4,1.02-5.74c.68-1.75,1.64-3.27,2.88-4.56,1.24-1.29,2.69-2.3,4.36-3.02s3.49-1.08,5.46-1.08,3.8.36,5.46,1.08,3.12,1.73,4.36,3.04,2.2,2.84,2.88,4.58c.68,1.75,1.02,3.65,1.02,5.7s-.34,3.96-1.02,5.7c-.68,1.75-1.64,3.28-2.88,4.58-1.24,1.31-2.7,2.32-4.36,3.04s-3.49,1.08-5.46,1.08ZM956.97,228.76c1.36,0,2.61-.25,3.74-.76s2.11-1.22,2.94-2.14,1.47-2,1.94-3.24c.47-1.24.7-2.6.7-4.06s-.23-2.82-.7-4.06c-.47-1.24-1.11-2.32-1.94-3.24s-1.81-1.63-2.94-2.14c-1.13-.51-2.38-.76-3.74-.76s-2.61.25-3.74.76c-1.13.51-2.12,1.21-2.96,2.12s-1.49,1.98-1.94,3.22c-.45,1.24-.68,2.61-.68,4.1s.23,2.83.68,4.08c.45,1.25,1.1,2.34,1.94,3.24.84.91,1.83,1.62,2.96,2.12,1.13.51,2.38.76,3.74.76Z"/>
    <path class="st1" d="M976.54,232.56v-28.02h11.41c1.52,0,2.9.38,4.14,1.14s2.23,1.79,2.98,3.1c.75,1.31,1.12,2.76,1.12,4.36s-.37,3.05-1.12,4.36c-.75,1.31-1.74,2.36-2.98,3.14s-2.62,1.18-4.14,1.18h-7.08v10.73h-4.32ZM980.87,217.68h7c.72,0,1.37-.21,1.96-.62.59-.41,1.06-.96,1.42-1.64.36-.68.54-1.43.54-2.26s-.18-1.57-.54-2.24c-.36-.67-.83-1.2-1.42-1.6-.59-.4-1.24-.6-1.96-.6h-7v8.97Z"/>
    <path class="st1" d="M1001.92,232.56v-28.02h4.32v23.86h13.13v4.16h-17.45Z"/>
    <path class="st1" d="M1025.9,232.56v-28.02h17.65v4.16h-13.33v19.69h13.33v4.16h-17.65ZM1027.86,220.28v-4.16h13.49v4.16h-13.49Z"/>
  </g>
</svg>