<svg version="1.1" id="Layer_1" xmlns="http://www.w3.org/2000/svg" xmlns:xlink="http://www.w3.org/1999/xlink" x="0px" y="0px"
	 width="100%" viewBox="0 0 1920 1080" enable-background="new 0 0 1920 1080" xml:space="preserve">
<path fill="#000000" opacity="1.000000" stroke="none" 
	d="
M1360.000000,1081.000000 
	C906.666748,1081.000000 453.833496,1081.000000 1.000182,1081.000000 
	C1.000122,721.000122 1.000122,361.000305 1.000061,1.000218 
	C1.999854,1.000000 2.999709,1.000000 3.999563,1.000000 
	C642.999451,1.000000 1281.999390,1.000000 1920.999512,1.000000 
	C1920.999634,360.999664 1920.999634,720.999329 1920.999756,1080.999512 
	C1734.166626,1081.000000 1547.333374,1081.000000 1360.000000,1081.000000 
M909.000000,563.500000 
	C909.000000,471.746307 909.000000,379.992645 909.000000,287.738800 
	C874.933472,287.738800 841.538940,287.738800 807.827026,287.738800 
	C807.827026,253.963257 807.827026,220.688538 807.827026,187.289856 
	C641.112976,187.289856 474.724030,187.289856 308.334534,187.289856 
	C308.334534,204.640701 308.334534,221.699554 308.334534,239.256287 
	C323.396027,239.256287 338.127411,239.256287 352.753021,239.256287 
	C352.753021,265.366516 352.753021,290.973816 352.753021,317.081177 
	C337.782349,317.081177 323.051727,317.081177 308.336395,317.081177 
	C308.336395,334.977783 308.336395,352.369965 308.336395,370.260040 
	C323.399841,370.260040 338.131226,370.260040 352.751160,370.260040 
	C352.751160,396.036987 352.751160,421.310974 352.751160,447.084961 
	C337.778534,447.084961 323.047882,447.084961 308.338287,447.084961 
	C308.338287,464.981567 308.338287,482.373810 308.338287,500.263794 
	C323.403687,500.263794 338.135101,500.263794 352.749268,500.263794 
	C352.749268,526.374023 352.749268,551.981384 352.749268,578.088684 
	C337.774689,578.088684 323.044037,578.088684 308.340149,578.088684 
	C308.340149,595.985413 308.340149,613.377686 308.340149,631.267578 
	C323.407532,631.267578 338.138916,631.267578 352.747375,631.267578 
	C352.747375,657.044556 352.747375,682.318542 352.747375,708.092468 
	C337.770813,708.092468 323.040192,708.092468 308.342041,708.092468 
	C308.342041,725.989197 308.342041,743.381531 308.342041,761.271362 
	C323.411377,761.271362 338.142761,761.271362 352.745514,761.271362 
	C352.745514,788.381592 352.745514,814.988953 352.745514,842.096191 
	C337.766998,842.096191 323.036377,842.096191 308.343933,842.096191 
	C308.343933,859.993042 308.343933,877.385315 308.343933,894.615234 
	C475.077179,894.615234 641.466309,894.615234 808.179565,894.615234 
	C808.179565,860.956665 808.179565,827.681946 808.179565,793.908691 
	C841.894958,793.908691 875.289429,793.908691 909.000000,793.908691 
	C909.000000,717.104980 909.000000,640.802490 909.000000,563.500000 
M1570.000000,805.500000 
	C1570.000000,818.596191 1570.000000,831.692444 1570.000000,844.718018 
	C1630.640015,844.718018 1690.705688,844.718018 1751.169556,844.718018 
	C1751.169556,831.698181 1751.169556,818.955627 1751.169556,805.825562 
	C1764.306641,805.825562 1777.049316,805.825562 1789.713867,805.825562 
	C1789.713867,773.023376 1789.713867,740.621155 1789.713867,707.821106 
	C1783.354980,707.821106 1777.277344,707.821106 1771.292847,707.821106 
	C1771.292847,701.678406 1771.292847,695.939270 1771.292847,689.807373 
	C1777.657715,689.807373 1783.735352,689.807373 1789.703369,689.807373 
	C1789.703369,663.336609 1789.703369,637.266907 1789.703369,610.801025 
	C1776.668091,610.801025 1763.925659,610.801025 1750.796143,610.801025 
	C1750.796143,597.663269 1750.796143,584.920776 1750.796143,572.296570 
	C1690.330688,572.296570 1630.264893,572.296570 1570.000000,572.296570 
	C1570.000000,649.895325 1570.000000,727.197632 1570.000000,805.500000 
M1389.500000,575.000000 
	C1377.403320,575.000000 1365.306519,575.000000 1352.819458,575.000000 
	C1352.819458,588.312927 1352.819458,601.055603 1352.819458,614.185852 
	C1339.681641,614.185852 1326.938965,614.185852 1314.286621,614.185852 
	C1314.286621,691.983887 1314.286621,769.382202 1314.286621,846.711670 
	C1333.978516,846.711670 1353.382568,846.711670 1373.179932,846.711670 
	C1373.179932,814.354065 1373.179932,782.283020 1373.179932,750.288208 
	C1407.313354,750.288208 1441.049072,750.288208 1475.179688,750.288208 
	C1475.179688,782.645630 1475.179688,814.716675 1475.179688,846.709961 
	C1494.981934,846.709961 1514.385986,846.709961 1533.716064,846.709961 
	C1533.716064,769.021362 1533.716064,691.623047 1533.716064,613.826233 
	C1520.693970,613.826233 1507.951294,613.826233 1494.820923,613.826233 
	C1494.820923,600.688538 1494.820923,587.945862 1494.820923,575.000000 
	C1459.781250,575.000000 1425.140625,575.000000 1389.500000,575.000000 
M1279.000000,237.651794 
	C1279.846802,233.689331 1277.282593,233.972855 1274.640991,233.974380 
	C1216.482178,234.007950 1158.323486,234.000092 1100.164673,234.000137 
	C1099.219116,234.000137 1098.273438,234.000153 1096.932861,234.000153 
	C1096.932861,247.197296 1096.932861,259.938751 1096.932861,273.072205 
	C1083.797485,273.072205 1071.055908,273.072205 1058.236328,273.072205 
	C1058.236328,299.208282 1058.236328,324.944366 1058.236328,351.079651 
	C1064.875366,351.079651 1071.289795,351.079651 1078.085693,351.079651 
	C1078.085693,364.216248 1078.085693,376.958160 1078.085693,390.085815 
	C1125.552002,390.085815 1172.620728,390.085815 1219.758179,390.085815 
	C1219.758179,409.217957 1219.758179,427.954773 1219.758179,447.083557 
	C1165.783325,447.083557 1112.048706,447.083557 1058.240112,447.083557 
	C1058.240112,466.881256 1058.240112,486.284607 1058.240112,505.764160 
	C1118.879883,505.764160 1179.279175,505.764160 1240.077515,505.764160 
	C1240.077515,493.125488 1240.077515,480.716888 1240.077515,467.917328 
	C1253.213257,467.917328 1265.955322,467.917328 1278.759277,467.917328 
	C1278.759277,435.115295 1278.759277,402.713165 1278.759277,369.911774 
	C1272.115601,369.911774 1265.701050,369.911774 1258.905762,369.911774 
	C1258.905762,356.775238 1258.905762,344.032715 1258.905762,330.905579 
	C1211.772705,330.905579 1165.037231,330.905579 1118.247070,330.905579 
	C1118.247070,318.105347 1118.247070,305.701141 1118.247070,292.905945 
	C1171.893921,292.905945 1225.295166,292.905945 1279.000000,292.905945 
	C1279.000000,274.550232 1279.000000,256.586456 1279.000000,237.651794 
M1490.500000,331.000000 
	C1457.739868,331.000000 1424.979858,331.000000 1392.288208,331.000000 
	C1392.288208,318.022186 1392.288208,305.616943 1392.288208,292.820618 
	C1433.645386,292.820618 1474.715820,292.820618 1515.709839,292.820618 
	C1515.709839,273.018341 1515.709839,253.613968 1515.709839,234.287643 
	C1454.351929,234.287643 1393.284546,234.287643 1332.281738,234.287643 
	C1332.281738,324.973969 1332.281738,415.372345 1332.281738,505.720703 
	C1393.631348,505.720703 1454.698730,505.720703 1515.718506,505.720703 
	C1515.718506,486.035919 1515.718506,466.631653 1515.718506,446.834045 
	C1474.368164,446.834045 1433.297729,446.834045 1392.283447,446.834045 
	C1392.283447,427.698517 1392.283447,408.960815 1392.283447,389.830017 
	C1433.635986,389.830017 1474.706299,389.830017 1515.714600,389.830017 
	C1515.714600,370.027863 1515.714600,350.623535 1515.714600,331.000000 
	C1507.453979,331.000000 1499.477051,331.000000 1490.500000,331.000000 
M1657.500000,506.000000 
	C1701.594849,506.000000 1745.689819,506.000000 1789.708130,506.000000 
	C1789.708130,486.017365 1789.708130,466.611786 1789.708130,446.809845 
	C1736.011597,446.809845 1682.605957,446.809845 1629.298340,446.809845 
	C1629.298340,395.337952 1629.298340,344.266632 1629.298340,292.796783 
	C1683.001465,292.796783 1736.407104,292.796783 1789.694336,292.796783 
	C1789.694336,272.989563 1789.694336,253.583710 1789.694336,234.259216 
	C1728.285889,234.259216 1667.183228,234.259216 1606.378174,234.259216 
	C1607.018921,247.257172 1607.647461,260.007935 1608.297485,273.194733 
	C1595.006226,273.194733 1582.595703,273.194733 1570.300903,273.194733 
	C1570.300903,338.333923 1570.300903,403.071686 1570.300903,468.208801 
	C1583.008545,468.208801 1595.419312,468.208801 1608.310669,468.208801 
	C1607.674438,480.939728 1607.059448,493.246948 1606.422119,506.000000 
	C1622.902954,506.000000 1639.701416,506.000000 1657.500000,506.000000 
M1199.500000,847.000000 
	C1225.928101,847.000000 1252.356079,847.000000 1278.710449,847.000000 
	C1278.710449,827.020264 1278.710449,807.615479 1278.710449,787.817383 
	C1225.018311,787.817383 1171.614746,787.817383 1117.818604,787.817383 
	C1117.818604,716.685730 1117.818604,645.950134 1117.818604,575.291260 
	C1097.683716,575.291260 1077.945557,575.291260 1058.288330,575.291260 
	C1058.288330,665.983154 1058.288330,756.383545 1058.288330,847.000000 
	C1105.217529,847.000000 1151.858765,847.000000 1199.500000,847.000000 
M274.432190,584.000000 
	C263.370483,584.000000 252.308762,584.000000 241.329025,584.000000 
	C241.329025,598.021606 241.329025,611.385559 241.329025,624.669495 
	C255.024612,624.669495 268.388580,624.669495 281.667786,624.669495 
	C281.667786,610.972839 281.667786,597.609009 281.667786,584.000000 
	C279.362366,584.000000 277.387512,584.000000 274.432190,584.000000 
M259.500610,889.000000 
	C266.928223,889.000000 274.355835,889.000000 281.616302,889.000000 
	C281.616302,874.924500 281.616302,861.531006 281.616302,848.251160 
	C267.957031,848.251160 254.682648,848.251160 241.295395,848.251160 
	C241.295395,861.895447 241.295395,875.286926 241.295395,889.000000 
	C247.224243,889.000000 252.862747,889.000000 259.500610,889.000000 
M282.000000,219.491638 
	C282.000000,210.398987 282.000000,201.306320 282.000000,192.386719 
	C267.918701,192.386719 254.524902,192.386719 241.254425,192.386719 
	C241.254425,206.049210 241.254425,219.323822 241.254425,232.701080 
	C254.902267,232.701080 268.293976,232.701080 282.000000,232.701080 
	C282.000000,228.433151 282.000000,224.460693 282.000000,219.491638 
M241.000000,732.500610 
	C241.000000,739.928223 241.000000,747.355835 241.000000,754.616333 
	C255.075439,754.616333 268.468933,754.616333 281.748840,754.616333 
	C281.748840,740.957092 281.748840,727.682678 281.748840,714.295410 
	C268.104553,714.295410 254.713089,714.295410 241.000000,714.295410 
	C241.000000,720.224243 241.000000,725.862732 241.000000,732.500610 
M245.639099,453.000000 
	C244.199707,453.079681 242.760315,453.159332 241.287582,453.240875 
	C241.287582,466.936890 241.287582,480.300201 241.287582,493.710510 
	C254.940430,493.710510 268.303925,493.710510 281.708588,493.710510 
	C281.708588,480.055664 281.708588,466.692169 281.708588,453.000000 
	C269.818390,453.000000 258.216461,453.000000 245.639099,453.000000 
M276.385468,323.000000 
	C264.662476,323.000000 252.939484,323.000000 241.344910,323.000000 
	C241.344910,337.052795 241.344910,350.417755 241.344910,363.652771 
	C255.057419,363.652771 268.422455,363.652771 281.826935,363.652771 
	C281.826935,350.059357 281.826935,336.813812 281.826935,323.246124 
	C280.236633,323.158539 278.796875,323.079254 276.385468,323.000000 
M214.000000,206.546448 
	C214.000000,203.779205 214.000000,201.011978 214.000000,198.368301 
	C203.621719,198.368301 193.894180,198.368301 184.236572,198.368301 
	C184.236572,208.346252 184.236572,217.953949 184.236572,227.718353 
	C194.199982,227.718353 203.925278,227.718353 214.000000,227.718353 
	C214.000000,220.806717 214.000000,214.171722 214.000000,206.546448 
M207.412704,589.000000 
	C199.683105,589.000000 191.953522,589.000000 184.338348,589.000000 
	C184.338348,599.374451 184.338348,609.073120 184.338348,618.659607 
	C194.378860,618.659607 204.077469,618.659607 213.657074,618.659607 
	C213.657074,608.617493 213.657074,598.919312 213.657074,589.000000 
	C211.671997,589.000000 210.028732,589.000000 207.412704,589.000000 
M184.000000,468.536499 
	C184.000000,474.941162 184.000000,481.345856 184.000000,487.677307 
	C194.345322,487.677307 204.041992,487.677307 213.675842,487.677307 
	C213.675842,477.986786 213.675842,468.622528 213.675842,459.324158 
	C203.651703,459.324158 193.955154,459.324158 184.000000,459.324158 
	C184.000000,462.280304 184.000000,464.914551 184.000000,468.536499 
M206.432449,749.000000 
	C208.856827,749.000000 211.281189,749.000000 213.693497,749.000000 
	C213.693497,739.023804 213.693497,729.659668 213.693497,720.307007 
	C203.687485,720.307007 193.990997,720.307007 184.309036,720.307007 
	C184.309036,729.981384 184.309036,739.345642 184.309036,749.000000 
	C191.559967,749.000000 198.505539,749.000000 206.432449,749.000000 
M198.501526,358.000000 
	C203.594803,358.000000 208.688095,358.000000 213.615402,358.000000 
	C213.615402,347.921173 213.615402,338.526245 213.615402,329.252441 
	C203.620972,329.252441 194.013184,329.252441 184.297089,329.252441 
	C184.297089,338.899292 184.297089,348.291138 184.297089,358.000000 
	C188.895935,358.000000 193.201202,358.000000 198.501526,358.000000 
M184.000000,861.567688 
	C184.000000,868.633179 184.000000,875.698730 184.000000,882.668213 
	C194.363052,882.668213 204.060516,882.668213 213.666077,882.668213 
	C213.666077,872.967590 213.666077,863.602539 213.666077,854.334839 
	C203.631653,854.334839 193.934372,854.334839 184.000000,854.334839 
	C184.000000,856.641113 184.000000,858.614197 184.000000,861.567688 
M133.000000,468.638367 
	C133.000000,473.363373 133.000000,478.088379 133.000000,482.641663 
	C139.416580,482.641663 145.119125,482.641663 150.640167,482.641663 
	C150.640167,476.244232 150.640167,470.210052 150.640167,464.000763 
	C145.657593,464.000763 141.023254,464.181854 136.411652,463.936340 
	C133.395767,463.775787 132.628525,465.052094 133.000000,468.638367 
M150.196167,613.879822 
	C150.572067,607.744629 150.947952,601.609436 151.338257,595.239075 
	C144.831848,595.239075 139.133789,595.239075 133.241150,595.239075 
	C133.241150,601.508972 133.241150,607.538818 133.241150,613.984131 
	C138.728668,613.984131 143.986176,613.984131 150.196167,613.879822 
M150.879974,725.804565 
	C145.076950,725.431946 139.273926,725.059265 133.238785,724.671692 
	C133.238785,731.504089 133.238785,737.533936 133.238785,743.756897 
	C139.176697,743.756897 144.874771,743.756897 150.984131,743.756897 
	C150.984131,737.935120 150.984131,732.346130 150.879974,725.804565 
M151.000000,342.521393 
	C151.000000,339.770355 151.000000,337.019318 151.000000,334.313843 
	C144.674240,334.313843 138.977524,334.313843 133.313873,334.313843 
	C133.313873,340.662384 133.313873,346.692871 133.313873,352.683594 
	C139.330429,352.683594 145.028992,352.683594 151.000000,352.683594 
	C151.000000,349.413208 151.000000,346.456604 151.000000,342.521393 
M133.015854,876.243286 
	C133.627396,876.823975 134.226379,877.892517 134.852432,877.908630 
	C140.098511,878.043640 145.349548,877.985413 150.748383,877.985413 
	C150.748383,871.469116 150.748383,865.439209 150.748383,859.255981 
	C144.796265,859.255981 139.098190,859.255981 133.001968,859.255981 
	C133.001968,864.763550 133.001968,870.024780 133.015854,876.243286 
M133.000000,211.544220 
	C133.000000,214.952087 133.000000,218.359955 133.000000,221.669342 
	C139.362213,221.669342 145.061279,221.669342 150.667755,221.669342 
	C150.667755,215.634445 150.667755,209.935257 150.667755,204.334076 
	C144.631378,204.334076 138.932358,204.334076 133.000000,204.334076 
	C133.000000,206.634018 133.000000,208.601486 133.000000,211.544220 
z"/>
<path fill="#F19120" opacity="1.000000" stroke="none" 
	d="
M909.000000,564.000000 
	C909.000000,640.802490 909.000000,717.104980 909.000000,793.908691 
	C875.289429,793.908691 841.894958,793.908691 808.179565,793.908691 
	C808.179565,827.681946 808.179565,860.956665 808.179565,894.615234 
	C641.466309,894.615234 475.077179,894.615234 308.343933,894.615234 
	C308.343933,877.385315 308.343933,859.993042 308.343933,842.096191 
	C323.036377,842.096191 337.766998,842.096191 352.745514,842.096191 
	C352.745514,814.988953 352.745514,788.381592 352.745514,761.271362 
	C338.142761,761.271362 323.411377,761.271362 308.342041,761.271362 
	C308.342041,743.381531 308.342041,725.989197 308.342041,708.092468 
	C323.040192,708.092468 337.770813,708.092468 352.747375,708.092468 
	C352.747375,682.318542 352.747375,657.044556 352.747375,631.267578 
	C338.138916,631.267578 323.407532,631.267578 308.340149,631.267578 
	C308.340149,613.377686 308.340149,595.985413 308.340149,578.088684 
	C323.044037,578.088684 337.774689,578.088684 352.749268,578.088684 
	C352.749268,551.981384 352.749268,526.374023 352.749268,500.263794 
	C338.135101,500.263794 323.403687,500.263794 308.338287,500.263794 
	C308.338287,482.373810 308.338287,464.981567 308.338287,447.084961 
	C323.047882,447.084961 337.778534,447.084961 352.751160,447.084961 
	C352.751160,421.310974 352.751160,396.036987 352.751160,370.260040 
	C338.131226,370.260040 323.399841,370.260040 308.336395,370.260040 
	C308.336395,352.369965 308.336395,334.977783 308.336395,317.081177 
	C323.051727,317.081177 337.782349,317.081177 352.753021,317.081177 
	C352.753021,290.973816 352.753021,265.366516 352.753021,239.256287 
	C338.127411,239.256287 323.396027,239.256287 308.334534,239.256287 
	C308.334534,221.699554 308.334534,204.640701 308.334534,187.289856 
	C474.724030,187.289856 641.112976,187.289856 807.827026,187.289856 
	C807.827026,220.688538 807.827026,253.963257 807.827026,287.738800 
	C841.538940,287.738800 874.933472,287.738800 909.000000,287.738800 
	C909.000000,379.992645 909.000000,471.746307 909.000000,564.000000 
M601.500000,339.000000 
	C569.410400,339.000000 537.320801,339.000000 505.383484,339.000000 
	C505.383484,473.737213 505.383484,607.795044 505.383484,741.748901 
	C589.374023,741.748901 672.980957,741.748901 756.704956,741.748901 
	C756.704956,607.440247 756.704956,473.382599 756.704956,339.398590 
	C756.107971,339.223724 755.802551,339.055969 755.497009,339.055817 
	C704.497986,339.029358 653.499023,339.014923 601.500000,339.000000 
z"/>
<path fill="#FFFFFF" opacity="1.000000" stroke="none" 
	d="
M1570.000000,805.000000 
	C1570.000000,727.197632 1570.000000,649.895325 1570.000000,572.296570 
	C1630.264893,572.296570 1690.330688,572.296570 1750.796143,572.296570 
	C1750.796143,584.920776 1750.796143,597.663269 1750.796143,610.801025 
	C1763.925659,610.801025 1776.668091,610.801025 1789.703369,610.801025 
	C1789.703369,637.266907 1789.703369,663.336609 1789.703369,689.807373 
	C1783.735352,689.807373 1777.657715,689.807373 1771.292847,689.807373 
	C1771.292847,695.939270 1771.292847,701.678406 1771.292847,707.821106 
	C1777.277344,707.821106 1783.354980,707.821106 1789.713867,707.821106 
	C1789.713867,740.621155 1789.713867,773.023376 1789.713867,805.825562 
	C1777.049316,805.825562 1764.306641,805.825562 1751.169556,805.825562 
	C1751.169556,818.955627 1751.169556,831.698181 1751.169556,844.718018 
	C1690.705688,844.718018 1630.640015,844.718018 1570.000000,844.718018 
	C1570.000000,831.692444 1570.000000,818.596191 1570.000000,805.000000 
M1676.500000,786.000000 
	C1694.594727,786.000000 1712.689575,786.000000 1730.712891,786.000000 
	C1730.712891,766.689758 1730.712891,747.952637 1730.712891,729.285889 
	C1696.689819,729.285889 1662.954712,729.285889 1629.287109,729.285889 
	C1629.287109,748.310181 1629.287109,767.047302 1629.287109,786.000000 
	C1644.882202,786.000000 1660.191162,786.000000 1676.500000,786.000000 
M1629.000000,655.492126 
	C1629.000000,659.927307 1629.000000,664.362488 1629.000000,668.716309 
	C1663.306274,668.716309 1697.041138,668.716309 1730.714111,668.716309 
	C1730.714111,656.359070 1730.714111,644.287659 1730.714111,632.284241 
	C1696.692627,632.284241 1662.957886,632.284241 1629.000000,632.284241 
	C1629.000000,639.876465 1629.000000,647.185913 1629.000000,655.492126 
z"/>
<path fill="#FFFFFF" opacity="1.000000" stroke="none" 
	d="
M1390.000000,575.000000 
	C1425.140625,575.000000 1459.781250,575.000000 1494.820923,575.000000 
	C1494.820923,587.945862 1494.820923,600.688538 1494.820923,613.826233 
	C1507.951294,613.826233 1520.693970,613.826233 1533.716064,613.826233 
	C1533.716064,691.623047 1533.716064,769.021362 1533.716064,846.709961 
	C1514.385986,846.709961 1494.981934,846.709961 1475.179688,846.709961 
	C1475.179688,814.716675 1475.179688,782.645630 1475.179688,750.288208 
	C1441.049072,750.288208 1407.313354,750.288208 1373.179932,750.288208 
	C1373.179932,782.283020 1373.179932,814.354065 1373.179932,846.711670 
	C1353.382568,846.711670 1333.978516,846.711670 1314.286621,846.711670 
	C1314.286621,769.382202 1314.286621,691.983887 1314.286621,614.185852 
	C1326.938965,614.185852 1339.681641,614.185852 1352.819458,614.185852 
	C1352.819458,601.055603 1352.819458,588.312927 1352.819458,575.000000 
	C1365.306519,575.000000 1377.403320,575.000000 1390.000000,575.000000 
M1475.000000,637.651794 
	C1475.847168,633.687927 1473.281372,633.970459 1470.640015,633.973877 
	C1439.142090,634.014404 1407.644165,634.000122 1376.146240,634.000183 
	C1375.202393,634.000183 1374.258667,634.000183 1373.240234,634.000183 
	C1373.240234,653.213074 1373.240234,671.950806 1373.240234,690.757629 
	C1407.218140,690.757629 1440.955078,690.757629 1475.000000,690.757629 
	C1475.000000,673.218872 1475.000000,655.920776 1475.000000,637.651794 
z"/>
<path fill="#FFFFFF" opacity="1.000000" stroke="none" 
	d="
M1279.000000,238.137222 
	C1279.000000,256.586456 1279.000000,274.550232 1279.000000,292.905945 
	C1225.295166,292.905945 1171.893921,292.905945 1118.247070,292.905945 
	C1118.247070,305.701141 1118.247070,318.105347 1118.247070,330.905579 
	C1165.037231,330.905579 1211.772705,330.905579 1258.905762,330.905579 
	C1258.905762,344.032715 1258.905762,356.775238 1258.905762,369.911774 
	C1265.701050,369.911774 1272.115601,369.911774 1278.759277,369.911774 
	C1278.759277,402.713165 1278.759277,435.115295 1278.759277,467.917328 
	C1265.955322,467.917328 1253.213257,467.917328 1240.077515,467.917328 
	C1240.077515,480.716888 1240.077515,493.125488 1240.077515,505.764160 
	C1179.279175,505.764160 1118.879883,505.764160 1058.240112,505.764160 
	C1058.240112,486.284607 1058.240112,466.881256 1058.240112,447.083557 
	C1112.048706,447.083557 1165.783325,447.083557 1219.758179,447.083557 
	C1219.758179,427.954773 1219.758179,409.217957 1219.758179,390.085815 
	C1172.620728,390.085815 1125.552002,390.085815 1078.085693,390.085815 
	C1078.085693,376.958160 1078.085693,364.216248 1078.085693,351.079651 
	C1071.289795,351.079651 1064.875366,351.079651 1058.236328,351.079651 
	C1058.236328,324.944366 1058.236328,299.208282 1058.236328,273.072205 
	C1071.055908,273.072205 1083.797485,273.072205 1096.932861,273.072205 
	C1096.932861,259.938751 1096.932861,247.197296 1096.932861,234.000153 
	C1098.273438,234.000153 1099.219116,234.000137 1100.164673,234.000137 
	C1158.323486,234.000092 1216.482178,234.007950 1274.640991,233.974380 
	C1277.282593,233.972855 1279.846802,233.689331 1279.000000,238.137222 
z"/>
<path fill="#FFFFFF" opacity="1.000000" stroke="none" 
	d="
M1491.000000,331.000000 
	C1499.477051,331.000000 1507.453979,331.000000 1515.714600,331.000000 
	C1515.714600,350.623535 1515.714600,370.027863 1515.714600,389.830017 
	C1474.706299,389.830017 1433.635986,389.830017 1392.283447,389.830017 
	C1392.283447,408.960815 1392.283447,427.698517 1392.283447,446.834045 
	C1433.297729,446.834045 1474.368164,446.834045 1515.718506,446.834045 
	C1515.718506,466.631653 1515.718506,486.035919 1515.718506,505.720703 
	C1454.698730,505.720703 1393.631348,505.720703 1332.281738,505.720703 
	C1332.281738,415.372345 1332.281738,324.973969 1332.281738,234.287643 
	C1393.284546,234.287643 1454.351929,234.287643 1515.709839,234.287643 
	C1515.709839,253.613968 1515.709839,273.018341 1515.709839,292.820618 
	C1474.715820,292.820618 1433.645386,292.820618 1392.288208,292.820618 
	C1392.288208,305.616943 1392.288208,318.022186 1392.288208,331.000000 
	C1424.979858,331.000000 1457.739868,331.000000 1491.000000,331.000000 
z"/>
<path fill="#FFFFFF" opacity="1.000000" stroke="none" 
	d="
M1657.000000,506.000000 
	C1639.701416,506.000000 1622.902954,506.000000 1606.422119,506.000000 
	C1607.059448,493.246948 1607.674438,480.939728 1608.310669,468.208801 
	C1595.419312,468.208801 1583.008545,468.208801 1570.300903,468.208801 
	C1570.300903,403.071686 1570.300903,338.333923 1570.300903,273.194733 
	C1582.595703,273.194733 1595.006226,273.194733 1608.297485,273.194733 
	C1607.647461,260.007935 1607.018921,247.257172 1606.378174,234.259216 
	C1667.183228,234.259216 1728.285889,234.259216 1789.694336,234.259216 
	C1789.694336,253.583710 1789.694336,272.989563 1789.694336,292.796783 
	C1736.407104,292.796783 1683.001465,292.796783 1629.298340,292.796783 
	C1629.298340,344.266632 1629.298340,395.337952 1629.298340,446.809845 
	C1682.605957,446.809845 1736.011597,446.809845 1789.708130,446.809845 
	C1789.708130,466.611786 1789.708130,486.017365 1789.708130,506.000000 
	C1745.689819,506.000000 1701.594849,506.000000 1657.000000,506.000000 
z"/>
<path fill="#FFFFFF" opacity="1.000000" stroke="none" 
	d="
M1199.000000,847.000000 
	C1151.858765,847.000000 1105.217529,847.000000 1058.288330,847.000000 
	C1058.288330,756.383545 1058.288330,665.983154 1058.288330,575.291260 
	C1077.945557,575.291260 1097.683716,575.291260 1117.818604,575.291260 
	C1117.818604,645.950134 1117.818604,716.685730 1117.818604,787.817383 
	C1171.614746,787.817383 1225.018311,787.817383 1278.710449,787.817383 
	C1278.710449,807.615479 1278.710449,827.020264 1278.710449,847.000000 
	C1252.356079,847.000000 1225.928101,847.000000 1199.000000,847.000000 
z"/>
<path fill="#F19120" opacity="1.000000" stroke="none" 
	d="
M274.922424,584.000000 
	C277.387512,584.000000 279.362366,584.000000 281.667786,584.000000 
	C281.667786,597.609009 281.667786,610.972839 281.667786,624.669495 
	C268.388580,624.669495 255.024612,624.669495 241.329025,624.669495 
	C241.329025,611.385559 241.329025,598.021606 241.329025,584.000000 
	C252.308762,584.000000 263.370483,584.000000 274.922424,584.000000 
z"/>
<path fill="#F19120" opacity="1.000000" stroke="none" 
	d="
M259.000916,889.000000 
	C252.862747,889.000000 247.224243,889.000000 241.295395,889.000000 
	C241.295395,875.286926 241.295395,861.895447 241.295395,848.251160 
	C254.682648,848.251160 267.957031,848.251160 281.616302,848.251160 
	C281.616302,861.531006 281.616302,874.924500 281.616302,889.000000 
	C274.355835,889.000000 266.928223,889.000000 259.000916,889.000000 
z"/>
<path fill="#F19120" opacity="1.000000" stroke="none" 
	d="
M282.000000,219.989929 
	C282.000000,224.460693 282.000000,228.433151 282.000000,232.701080 
	C268.293976,232.701080 254.902267,232.701080 241.254425,232.701080 
	C241.254425,219.323822 241.254425,206.049210 241.254425,192.386719 
	C254.524902,192.386719 267.918701,192.386719 282.000000,192.386719 
	C282.000000,201.306320 282.000000,210.398987 282.000000,219.989929 
z"/>
<path fill="#F19120" opacity="1.000000" stroke="none" 
	d="
M241.000000,732.000977 
	C241.000000,725.862732 241.000000,720.224243 241.000000,714.295410 
	C254.713089,714.295410 268.104553,714.295410 281.748840,714.295410 
	C281.748840,727.682678 281.748840,740.957092 281.748840,754.616333 
	C268.468933,754.616333 255.075439,754.616333 241.000000,754.616333 
	C241.000000,747.355835 241.000000,739.928223 241.000000,732.000977 
z"/>
<path fill="#F19120" opacity="1.000000" stroke="none" 
	d="
M246.126831,453.000000 
	C258.216461,453.000000 269.818390,453.000000 281.708588,453.000000 
	C281.708588,466.692169 281.708588,480.055664 281.708588,493.710510 
	C268.303925,493.710510 254.940430,493.710510 241.287582,493.710510 
	C241.287582,480.300201 241.287582,466.936890 241.287582,453.240875 
	C242.760315,453.159332 244.199707,453.079681 246.126831,453.000000 
z"/>
<path fill="#F19120" opacity="1.000000" stroke="none" 
	d="
M276.871277,323.000000 
	C278.796875,323.079254 280.236633,323.158539 281.826935,323.246124 
	C281.826935,336.813812 281.826935,350.059357 281.826935,363.652771 
	C268.422455,363.652771 255.057419,363.652771 241.344910,363.652771 
	C241.344910,350.417755 241.344910,337.052795 241.344910,323.000000 
	C252.939484,323.000000 264.662476,323.000000 276.871277,323.000000 
z"/>
<path fill="#F19120" opacity="1.000000" stroke="none" 
	d="
M214.000000,207.041580 
	C214.000000,214.171722 214.000000,220.806717 214.000000,227.718353 
	C203.925278,227.718353 194.199982,227.718353 184.236572,227.718353 
	C184.236572,217.953949 184.236572,208.346252 184.236572,198.368301 
	C193.894180,198.368301 203.621719,198.368301 214.000000,198.368301 
	C214.000000,201.011978 214.000000,203.779205 214.000000,207.041580 
z"/>
<path fill="#F19120" opacity="1.000000" stroke="none" 
	d="
M207.899078,589.000000 
	C210.028732,589.000000 211.671997,589.000000 213.657074,589.000000 
	C213.657074,598.919312 213.657074,608.617493 213.657074,618.659607 
	C204.077469,618.659607 194.378860,618.659607 184.338348,618.659607 
	C184.338348,609.073120 184.338348,599.374451 184.338348,589.000000 
	C191.953522,589.000000 199.683105,589.000000 207.899078,589.000000 
z"/>
<path fill="#F19120" opacity="1.000000" stroke="none" 
	d="
M184.000000,468.042664 
	C184.000000,464.914551 184.000000,462.280304 184.000000,459.324158 
	C193.955154,459.324158 203.651703,459.324158 213.675842,459.324158 
	C213.675842,468.622528 213.675842,477.986786 213.675842,487.677307 
	C204.041992,487.677307 194.345322,487.677307 184.000000,487.677307 
	C184.000000,481.345856 184.000000,474.941162 184.000000,468.042664 
z"/>
<path fill="#F19120" opacity="1.000000" stroke="none" 
	d="
M205.941772,749.000000 
	C198.505539,749.000000 191.559967,749.000000 184.309036,749.000000 
	C184.309036,739.345642 184.309036,729.981384 184.309036,720.307007 
	C193.990997,720.307007 203.687485,720.307007 213.693497,720.307007 
	C213.693497,729.659668 213.693497,739.023804 213.693497,749.000000 
	C211.281189,749.000000 208.856827,749.000000 205.941772,749.000000 
z"/>
<path fill="#F19120" opacity="1.000000" stroke="none" 
	d="
M198.003998,358.000000 
	C193.201202,358.000000 188.895935,358.000000 184.297089,358.000000 
	C184.297089,348.291138 184.297089,338.899292 184.297089,329.252441 
	C194.013184,329.252441 203.620972,329.252441 213.615402,329.252441 
	C213.615402,338.526245 213.615402,347.921173 213.615402,358.000000 
	C208.688095,358.000000 203.594803,358.000000 198.003998,358.000000 
z"/>
<path fill="#F19120" opacity="1.000000" stroke="none" 
	d="
M184.000000,861.077515 
	C184.000000,858.614197 184.000000,856.641113 184.000000,854.334839 
	C193.934372,854.334839 203.631653,854.334839 213.666077,854.334839 
	C213.666077,863.602539 213.666077,872.967590 213.666077,882.668213 
	C204.060516,882.668213 194.363052,882.668213 184.000000,882.668213 
	C184.000000,875.698730 184.000000,868.633179 184.000000,861.077515 
z"/>
<path fill="#F19120" opacity="1.000000" stroke="none" 
	d="
M133.000107,468.156799 
	C132.628525,465.052094 133.395767,463.775787 136.411652,463.936340 
	C141.023254,464.181854 145.657593,464.000763 150.640167,464.000763 
	C150.640167,470.210052 150.640167,476.244232 150.640167,482.641663 
	C145.119125,482.641663 139.416580,482.641663 133.000000,482.641663 
	C133.000000,478.088379 133.000000,473.363373 133.000107,468.156799 
z"/>
<path fill="#F19120" opacity="1.000000" stroke="none" 
	d="
M149.719940,613.932007 
	C143.986176,613.984131 138.728668,613.984131 133.241150,613.984131 
	C133.241150,607.538818 133.241150,601.508972 133.241150,595.239075 
	C139.133789,595.239075 144.831848,595.239075 151.338257,595.239075 
	C150.947952,601.609436 150.572067,607.744629 149.719940,613.932007 
z"/>
<path fill="#F19120" opacity="1.000000" stroke="none" 
	d="
M150.932053,726.280884 
	C150.984131,732.346130 150.984131,737.935120 150.984131,743.756897 
	C144.874771,743.756897 139.176697,743.756897 133.238785,743.756897 
	C133.238785,737.533936 133.238785,731.504089 133.238785,724.671692 
	C139.273926,725.059265 145.076950,725.431946 150.932053,726.280884 
z"/>
<path fill="#F19120" opacity="1.000000" stroke="none" 
	d="
M151.000000,343.010681 
	C151.000000,346.456604 151.000000,349.413208 151.000000,352.683594 
	C145.028992,352.683594 139.330429,352.683594 133.313873,352.683594 
	C133.313873,346.692871 133.313873,340.662384 133.313873,334.313843 
	C138.977524,334.313843 144.674240,334.313843 151.000000,334.313843 
	C151.000000,337.019318 151.000000,339.770355 151.000000,343.010681 
z"/>
<path fill="#F19120" opacity="1.000000" stroke="none" 
	d="
M133.008911,875.764648 
	C133.001968,870.024780 133.001968,864.763550 133.001968,859.255981 
	C139.098190,859.255981 144.796265,859.255981 150.748383,859.255981 
	C150.748383,865.439209 150.748383,871.469116 150.748383,877.985413 
	C145.349548,877.985413 140.098511,878.043640 134.852432,877.908630 
	C134.226379,877.892517 133.627396,876.823975 133.008911,875.764648 
z"/>
<path fill="#F19120" opacity="1.000000" stroke="none" 
	d="
M133.000000,211.056595 
	C133.000000,208.601486 133.000000,206.634018 133.000000,204.334076 
	C138.932358,204.334076 144.631378,204.334076 150.667755,204.334076 
	C150.667755,209.935257 150.667755,215.634445 150.667755,221.669342 
	C145.061279,221.669342 139.362213,221.669342 133.000000,221.669342 
	C133.000000,218.359955 133.000000,214.952087 133.000000,211.056595 
z"/>
<path fill="#000000" opacity="1.000000" stroke="none" 
	d="
M602.000000,339.000000 
	C653.499023,339.014923 704.497986,339.029358 755.497009,339.055817 
	C755.802551,339.055969 756.107971,339.223724 756.704956,339.398590 
	C756.704956,473.382599 756.704956,607.440247 756.704956,741.748901 
	C672.980957,741.748901 589.374023,741.748901 505.383484,741.748901 
	C505.383484,607.795044 505.383484,473.737213 505.383484,339.000000 
	C537.320801,339.000000 569.410400,339.000000 602.000000,339.000000 
z"/>
<path fill="#000000" opacity="1.000000" stroke="none" 
	d="
M1676.000000,786.000000 
	C1660.191162,786.000000 1644.882202,786.000000 1629.287109,786.000000 
	C1629.287109,767.047302 1629.287109,748.310181 1629.287109,729.285889 
	C1662.954712,729.285889 1696.689819,729.285889 1730.712891,729.285889 
	C1730.712891,747.952637 1730.712891,766.689758 1730.712891,786.000000 
	C1712.689575,786.000000 1694.594727,786.000000 1676.000000,786.000000 
z"/>
<path fill="#000000" opacity="1.000000" stroke="none" 
	d="
M1629.000000,654.993774 
	C1629.000000,647.185913 1629.000000,639.876465 1629.000000,632.284241 
	C1662.957886,632.284241 1696.692627,632.284241 1730.714111,632.284241 
	C1730.714111,644.287659 1730.714111,656.359070 1730.714111,668.716309 
	C1697.041138,668.716309 1663.306274,668.716309 1629.000000,668.716309 
	C1629.000000,664.362488 1629.000000,659.927307 1629.000000,654.993774 
z"/>
<path fill="#000000" opacity="1.000000" stroke="none" 
	d="
M1475.000000,638.137207 
	C1475.000000,655.920776 1475.000000,673.218872 1475.000000,690.757629 
	C1440.955078,690.757629 1407.218140,690.757629 1373.240234,690.757629 
	C1373.240234,671.950806 1373.240234,653.213074 1373.240234,634.000183 
	C1374.258667,634.000183 1375.202393,634.000183 1376.146240,634.000183 
	C1407.644165,634.000122 1439.142090,634.014404 1470.640015,633.973877 
	C1473.281372,633.970459 1475.847168,633.687927 1475.000000,638.137207 
z"/>
</svg>