<?xml version="1.0" encoding="UTF-8"?>
<svg id="Layer_1" xmlns="http://www.w3.org/2000/svg" version="1.1" viewBox="0 0 1007.08 164.2">
  <!-- Generator: Adobe Illustrator 30.1.0, SVG Export Plug-In . SVG Version: 2.1.1 Build 89)  -->
  <defs>
    <style>
      .st0 {
        fill: #fff;
      }
    </style>
  </defs>
  <g>
    <g>
      <path class="st0" d="M260.1,94.67h-31.42v50.27h-25.13V19.27h25.13v50.27h31.42V19.27h25.14v125.67h-25.14v-50.27Z"/>
      <path class="st0" d="M360.63,113.52h-31.42v31.42h-25.13V50.69h6.28v-6.28h6.28v-6.28h6.28v-6.28h6.28v-6.28h6.28v-6.28h18.85v6.28h6.28v6.28h6.28v6.28h6.28v6.28h6.28v6.28h6.29v94.25h-25.14v-31.42ZM329.21,88.38h31.42v-25.13h-6.28v-6.28h-6.28v-6.28h-6.28v6.28h-6.28v6.28h-6.28v25.13Z"/>
      <path class="st0" d="M404.61,107.24h25.13v6.28h6.28v6.28h25.13v-6.28h6.28v-12.57h-6.28v-6.28h-37.7v-6.28h-12.57v-12.57h-6.28v-37.7h6.28v-12.57h12.57v-6.28h50.27v6.28h12.57v12.57h6.28v18.85h-25.14v-6.28h-6.28v-6.28h-25.13v6.28h-6.28v12.57h6.28v6.28h37.7v6.28h12.57v12.57h6.28v37.7h-6.28v12.57h-12.57v6.28h-50.27v-6.28h-12.57v-12.57h-6.28v-18.85Z"/>
      <path class="st0" d="M511.43,19.27h75.4v25.13h-25.13v100.53h-25.13V44.4h-25.13v-25.13Z"/>
      <path class="st0" d="M637.09,107.24h-6.28v-6.28h-6.28v-6.28h-6.28v-6.28h-6.28v-6.28h-6.28V19.27h25.13v50.27h6.28v6.28h6.28v6.28h12.57v-6.28h6.28v-6.28h6.28V19.27h25.14v62.83h-6.28v6.28h-6.29v6.28h-6.28v6.28h-6.28v6.28h-6.28v37.7h-25.13v-37.7Z"/>
    </g>
    <g>
      <path class="st0" d="M781.76,147.63h-68.22V16.57h68.22v6.29h12.56v12.57h6.29v93.35h-6.29v12.57h-12.56v6.28ZM718.93,142.24h57.45v-6.28h12.56v-12.57h6.29V40.81h-6.29v-12.57h-12.56v-6.29h-57.45v120.28ZM769.19,122.5h-30.52V41.71h30.52v6.28h6.28v68.22h-6.28v6.28ZM744.06,117.11h19.75v-6.28h6.28v-57.45h-6.28v-6.28h-19.75v70.01Z"/>
      <path class="st0" d="M900.47,147.63h-80.79V16.57h80.79v30.52h-50.26v19.75h37.7v30.52h-37.7v19.75h50.26v30.52ZM825.07,142.24h70.01v-19.75h-50.26v-30.52h37.7v-19.75h-37.7v-30.52h50.26v-19.75h-70.01v120.28Z"/>
      <path class="st0" d="M975.66,147.63h-24.24v-6.28h-6.28v-6.28h-6.28v-6.28h-6.28v-6.28h-6.28v-6.28h-6.28V16.57h30.52v81.68h6.28v6.29h6.28v6.28h.89v-6.28h6.28v-6.29h6.28V16.57h30.52v99.64h-6.29v6.28h-6.28v6.28h-6.28v6.28h-6.28v6.28h-6.28v6.28ZM956.81,142.24h13.46v-6.28h6.28v-6.28h6.28v-6.28h6.28v-6.28h6.28v-6.28h6.29V21.96h-19.75v81.68h-6.28v6.29h-6.28v6.28h-11.67v-6.28h-6.28v-6.29h-6.28V21.96h-19.75v88.86h6.28v6.28h6.28v6.28h6.28v6.28h6.28v6.28h6.28v6.28Z"/>
    </g>
  </g>
  <g>
    <polygon class="st0" points="94.32 155.95 102.54 155.95 102.54 132.38 45.39 132.38 45.39 155.95 53.71 155.95 53.71 164.2 94.32 164.2 94.32 155.95"/>
    <polygon class="st0" points="0 33.61 147.93 33.61 147.93 8.39 139.54 8.39 139.54 0 8.39 0 8.39 8.39 0 8.39 0 33.61"/>
    <g>
      <polygon class="st0" points="91.13 98.55 139.54 98.55 139.54 90.16 147.93 90.16 147.93 64.94 91.13 64.94 91.13 98.55"/>
      <polygon class="st0" points="56.86 64.94 0 64.94 0 90.16 8.39 90.16 8.39 98.55 56.86 98.55 56.86 64.94"/>
    </g>
  </g>
</svg>